<?xml version="1.0" encoding="UTF-8"?>
<svg id="Layer_2" data-name="Layer 2" xmlns="http://www.w3.org/2000/svg" viewBox="0 0 160.06 159.95">
  <defs>
    <style>
      .cls-1 {
        fill: #4c88f2;
      }
    </style>
  </defs>
  <g id="Layer_1-2" data-name="Layer 1">
    <path class="cls-1" d="M43.29,3.48C44.67,1.31,47.08,0,49.68,0l10.4.03c4.18.01,7.55,3.4,7.54,7.58l-.15,60.52h2.93c2.59.01,5-1.3,6.39-3.49L115.84,3.66c1.39-2.17,3.8-3.48,6.39-3.48l30.29.08c4.18.01,7.55,3.4,7.54,7.58l-.36,144.57c-.01,4.18-3.4,7.55-7.58,7.54l-47.21-.12c-4.18-.01-7.55-3.4-7.54-7.58l.18-72.3c.01-4.18-3.37-7.57-7.54-7.58l-7.87-.02c-2.58,0-4.99,1.31-6.39,3.48l-51.4,80.29c-1.4,2.19-3.81,3.5-6.39,3.49l-10.4-.03C3.37,159.58-.01,156.19,0,152.01l.2-81.26L43.29,3.48Z"/>
  </g>
</svg>